<mxfile host="app.diagrams.net" modified="2023-04-11T17:05:04.971Z" agent="Mozilla/5.0 (Windows NT 10.0; Win64; x64) AppleWebKit/537.36 (KHTML, like Gecko) Chrome/111.0.0.0 Safari/537.36" etag="1LfGA6Uw1rfhUTNp8fFN" version="21.1.5" type="device">
  <diagram name="PÃ¡gina-1" id="nsB98SzvjLkjTurCf-Dm">
    <mxGraphModel dx="474" dy="763" grid="1" gridSize="10" guides="1" tooltips="1" connect="1" arrows="1" fold="1" page="1" pageScale="1" pageWidth="827" pageHeight="1169" math="0" shadow="0">
      <root>
        <mxCell id="0" />
        <mxCell id="1" parent="0" />
        <mxCell id="mMFjoxkciTvaHP6ybKh6-7" style="edgeStyle=orthogonalEdgeStyle;rounded=0;orthogonalLoop=1;jettySize=auto;html=1;exitX=0.5;exitY=1;exitDx=0;exitDy=0;exitPerimeter=0;entryX=0.5;entryY=0;entryDx=0;entryDy=0;entryPerimeter=0;" parent="1" source="mMFjoxkciTvaHP6ybKh6-1" target="mMFjoxkciTvaHP6ybKh6-3" edge="1">
          <mxGeometry relative="1" as="geometry" />
        </mxCell>
        <mxCell id="mMFjoxkciTvaHP6ybKh6-1" value="&lt;font style=&quot;font-size: 15px;&quot;&gt;Inicio&lt;/font&gt;" style="strokeWidth=2;html=1;shape=mxgraph.flowchart.start_1;whiteSpace=wrap;" parent="1" vertex="1">
          <mxGeometry x="364" y="70" width="100" height="60" as="geometry" />
        </mxCell>
        <mxCell id="mMFjoxkciTvaHP6ybKh6-8" style="edgeStyle=orthogonalEdgeStyle;rounded=0;orthogonalLoop=1;jettySize=auto;html=1;exitX=0.5;exitY=1;exitDx=0;exitDy=0;exitPerimeter=0;" parent="1" source="mMFjoxkciTvaHP6ybKh6-3" target="mMFjoxkciTvaHP6ybKh6-4" edge="1">
          <mxGeometry relative="1" as="geometry" />
        </mxCell>
        <mxCell id="mMFjoxkciTvaHP6ybKh6-3" value="&quot;Informe as horas, minutos e segundos&quot;" style="strokeWidth=2;html=1;shape=mxgraph.flowchart.display;whiteSpace=wrap;" parent="1" vertex="1">
          <mxGeometry x="346" y="180" width="136" height="60" as="geometry" />
        </mxCell>
        <mxCell id="mMFjoxkciTvaHP6ybKh6-9" style="edgeStyle=orthogonalEdgeStyle;rounded=0;orthogonalLoop=1;jettySize=auto;html=1;exitX=0.5;exitY=1;exitDx=0;exitDy=0;entryX=0.5;entryY=0;entryDx=0;entryDy=0;" parent="1" source="mMFjoxkciTvaHP6ybKh6-4" target="mMFjoxkciTvaHP6ybKh6-5" edge="1">
          <mxGeometry relative="1" as="geometry" />
        </mxCell>
        <mxCell id="mMFjoxkciTvaHP6ybKh6-4" value="h, m, s" style="html=1;strokeWidth=2;shape=manualInput;whiteSpace=wrap;rounded=1;size=26;arcSize=11;" parent="1" vertex="1">
          <mxGeometry x="364" y="290" width="100" height="60" as="geometry" />
        </mxCell>
        <mxCell id="mMFjoxkciTvaHP6ybKh6-10" style="edgeStyle=orthogonalEdgeStyle;rounded=0;orthogonalLoop=1;jettySize=auto;html=1;exitX=0.5;exitY=1;exitDx=0;exitDy=0;" parent="1" source="mMFjoxkciTvaHP6ybKh6-5" target="mMFjoxkciTvaHP6ybKh6-6" edge="1">
          <mxGeometry relative="1" as="geometry" />
        </mxCell>
        <mxCell id="mMFjoxkciTvaHP6ybKh6-5" value="st &amp;lt;- (h * 60* 60)+ (m * 60) + s" style="rounded=1;whiteSpace=wrap;html=1;absoluteArcSize=1;arcSize=14;strokeWidth=2;" parent="1" vertex="1">
          <mxGeometry x="296" y="390" width="236" height="100" as="geometry" />
        </mxCell>
        <mxCell id="V1qH6gtzlaDCqw6iZm4H-2" style="edgeStyle=orthogonalEdgeStyle;rounded=0;orthogonalLoop=1;jettySize=auto;html=1;exitX=0.5;exitY=1;exitDx=0;exitDy=0;exitPerimeter=0;entryX=0.5;entryY=0;entryDx=0;entryDy=0;entryPerimeter=0;" edge="1" parent="1" source="mMFjoxkciTvaHP6ybKh6-6" target="V1qH6gtzlaDCqw6iZm4H-1">
          <mxGeometry relative="1" as="geometry" />
        </mxCell>
        <mxCell id="mMFjoxkciTvaHP6ybKh6-6" value="&quot;Se passaram &quot;, st, &quot;segundos.&quot;" style="strokeWidth=2;html=1;shape=mxgraph.flowchart.display;whiteSpace=wrap;" parent="1" vertex="1">
          <mxGeometry x="339" y="570" width="150" height="65" as="geometry" />
        </mxCell>
        <mxCell id="V1qH6gtzlaDCqw6iZm4H-1" value="Fim" style="strokeWidth=2;html=1;shape=mxgraph.flowchart.terminator;whiteSpace=wrap;" vertex="1" parent="1">
          <mxGeometry x="364" y="740" width="100" height="60" as="geometry" />
        </mxCell>
      </root>
    </mxGraphModel>
  </diagram>
</mxfile>
